<?xml version="1.0" encoding="utf-8"?>
<!-- Generator: Adobe Illustrator 23.1.1, SVG Export Plug-In . SVG Version: 6.00 Build 0)  -->
<svg version="1.1" id="Layer_1" xmlns="http://www.w3.org/2000/svg" xmlns:xlink="http://www.w3.org/1999/xlink" x="0px" y="0px"
	 viewBox="0 0 100 25" style="enable-background:new 0 0 100 25;" xml:space="preserve">
<style type="text/css">
	.st0{fill:#FFFFFF;}
	.st1{font-family:'Quasimoda-ExtraLight';}
	.st2{font-size:10.6766px;}
	.st3{fill:none;stroke:#FFFFFF;stroke-width:0.25;stroke-miterlimit:10;}
</style>
<text transform="matrix(1 0 0 1 11.7461 16.1934)" class="st0 st1 st2">CA</text>
<text transform="matrix(1 0 0 1 27.1558 16.1934)" class="st0 st1 st2">M</text>
<text transform="matrix(1 0 0 1 36.2759 16.1934)" class="st0 st1 st2">P</text>
<text transform="matrix(1 0 0 1 42.2705 16.1934)" class="st0 st1 st2">U</text>
<text transform="matrix(1 0 0 1 49.8843 16.1934)" class="st0 st1 st2">S</text>
<g>
	<path class="st0" d="M61.7,10.5c0.5,0,1,0.2,1.3,0.7l0.2,0l2.2-1.3c-0.8-1.4-2.3-2.1-3.9-2.1c-2.6,0-4.7,1.8-4.7,4.6
		c0,2.7,2.1,4.6,4.7,4.6c1.6,0,3.1-0.7,3.9-2.1l-2.2-1.3l-0.2,0c-0.3,0.5-0.7,0.7-1.2,0.7c-0.9,0-1.7-0.7-1.7-1.9
		C60.1,11.3,60.8,10.5,61.7,10.5z"/>
	<path class="st0" d="M68.7,8.1l-3.1,8.7H69l0.3-1.1h2.4l0.3,1.1h3.4l-3.1-8.7H68.7z M69.8,13.6l0.2-0.9c0.1-0.5,0.3-1.3,0.4-2.1
		h0.1c0.1,0.8,0.3,1.7,0.4,2.1l0.2,0.9H69.8z"/>
	<path class="st0" d="M79.1,10.3c0.5,0,0.9,0.3,1.2,0.7l0.2,0.1l1.9-1.5c-0.8-1.1-2-1.7-3.4-1.7c-1.9,0-3.4,1.2-3.4,2.7
		c0,1.4,0.6,2.1,2.2,2.8c1.4,0.6,1.6,0.7,1.6,1c0,0.2-0.2,0.3-0.7,0.3c-0.5,0-1-0.2-1.4-0.7l-0.2-0.1l-1.9,1.4
		c0.8,1.1,2.1,1.8,3.6,1.8c2.1,0,3.6-1.3,3.6-3c0-1.1-0.6-1.9-2.2-2.5c-1.6-0.7-1.6-0.7-1.6-0.9C78.6,10.4,78.8,10.3,79.1,10.3z"/>
	<polygon class="st0" points="88.5,8.1 88.5,11.2 86.3,11.2 86.3,8.1 83.5,8.1 83.5,16.8 86.3,16.8 86.3,13.7 88.5,13.7 88.5,16.8 
		91.4,16.8 91.4,8.1 	"/>
</g>
<rect x="7.5" y="2.9" class="st3" width="88.6" height="19.1"/>
</svg>
